<?xml version="1.0" encoding="utf-8"?>
<!-- Generator: Adobe Illustrator 27.9.0, SVG Export Plug-In . SVG Version: 6.00 Build 0)  -->
<svg version="1.1" id="Layer_1" xmlns="http://www.w3.org/2000/svg" xmlns:xlink="http://www.w3.org/1999/xlink" x="0px" y="0px"
	 viewBox="0 0 540.67 540.67" style="enable-background:new 0 0 540.67 540.67;" xml:space="preserve">
<style type="text/css">
	.st0{fill:#595959;}
	.st1{fill:#444444;}
	.st2{fill:#C6C6C6;}
	.st3{fill:#EFEFEF;}
	.st4{fill:#CCCCCC;}
	.st5{fill:#EAEAEA;}
</style>
<path class="st0" d="M146.74,108.83v335.4c0,0,134.16,61.71,246.86,0v-335.4C393.6,108.83,299.68,132.98,146.74,108.83z"/>
<path class="st1" d="M176.25,48.46l-29.52,60.37c30.15,7.07,78.27,16.07,133.04,15.88c53.81-0.19,89.58-9.17,98.16-11.4
	c6.53-1.7,11.92-3.31,15.65-4.47c-8.94-20.12-17.89-40.25-26.83-60.37H176.25z"/>
<path class="st2" d="M372.58,44.88h7.16c0,0,6.04-3.58,0-8.27l-218.68-0.89c0,0-3.8,4.92,0,8.05l13.86,0.07L372.58,44.88z"/>
<polygon class="st3" points="176.25,48.46 366.76,48.46 366.76,44.85 176.25,43.85 "/>
<path class="st4" d="M180.5,471.67c0,0-1.42,2.16-1.39,5.22c0.01,1.48,0.37,3.17,1.39,4.92c0,0,33.09,12.3,84.52,13.42
	s1.12,0,1.12,0s59.7-0.67,90.78-14.09c0,0,3.8-4.62,2.01-9.47C358.94,471.67,280.23,491.27,180.5,471.67z"/>
<path class="st5" d="M150.36,445.87c0,0,1.29,7.83,2.86,8.05c1.57,0.22,12.75,13.94,27.28,17.81c14.53,3.88,70.2,9,88.76,8.71
	c18.56-0.29,65.97-3.19,89.67-8.71c0,0,34.66-17.59,34.66-27.43c-38.25,8.08-87.22,14.59-144,12.85
	C212.17,456.02,178.79,451.51,150.36,445.87z"/>
<path class="st3" d="M348.54,69.71l9.39,38.24l12.07,7.38c-4.73,1.02-9.63,1.98-14.69,2.88c-4.59,0.81-9.07,1.52-13.44,2.15
	c-2.92-3.02-5.84-6.03-8.76-9.05l8.05-2.01l-4.7-11.4l-9.39-4.02l4.7-5.37l4.7-2.68c0,0,9.39,2.68-2.68-12.75l-16.1-3.35l9.39-12.75
	l26.83,2.68L348.54,69.71z"/>
<path class="st3" d="M345.8,284.41l-3.45,168.45c2.11-0.24,4.35-0.59,6.5-0.86c3.38-0.44,6.87-0.93,10.13-1.42
	c-0.09-53.39-0.35-106.74-0.44-160.13L345.8,284.41z"/>
</svg>
