<?xml version="1.0" encoding="utf-8"?>
<!-- Generator: Adobe Illustrator 27.9.0, SVG Export Plug-In . SVG Version: 6.00 Build 0)  -->
<svg version="1.1" id="Layer_1" xmlns="http://www.w3.org/2000/svg" xmlns:xlink="http://www.w3.org/1999/xlink" x="0px" y="0px"
	 viewBox="0 0 540.67 540.67" style="enable-background:new 0 0 540.67 540.67;" xml:space="preserve">
<style type="text/css">
	.st0{fill:#3A3A3A;}
	.st1{fill:#333333;}
	.st2{fill:#3F3F3F;}
	.st3{fill:#CCCCCC;}
	.st4{fill:#AAAAAA;}
	.st5{fill:#BCBCBC;}
</style>
<path class="st0" d="M243.43,39.49c-0.53-0.23-6.11-2.8-3.26-8.98c1.27-2.75,3.68-4.81,6.53-5.85c12.73-4.64,27.94-10.33,53.3,1.17
	c1.9,0.86,1.78,1.13,1.85,1.11c0,0,6.24,8.08-0.31,12.52c-0.04,0.03-0.08,0.04-0.13,0.04h-57.89
	C243.49,39.51,243.46,39.51,243.43,39.49z"/>
<path class="st1" d="M240.89,71.29c0,0,29.28-8.68,59.95-0.28c0.71,0.19,1.45,0.24,2.18,0.12c2-0.32,5.6-1.16,5.59-2.97
	c0-0.58,0-0.56-0.11-1.73c-0.18-1.95-0.1-7.69-5.76-23.48c-0.74-2.05-2.68-3.43-4.86-3.43c-10.4,0-40.38,0-50.79,0
	c-2.18,0-4.12,1.37-4.86,3.42c-2.56,7.17-7.49,22.84-6.3,25.01c0.76,1.38,0,0,0.76,1.38C237.25,70.36,238.11,71.83,240.89,71.29z"/>
<path class="st2" d="M245.67,68.47c7.33-0.96,28.27-3.1,50.81,0c1.58,0.22,2.82,1.47,3,3.05l15.74,138.61
	c0.4,3.51,2.08,6.76,4.72,9.12c15.43,13.79,15.94,14.59,28.11,35.82c1.35,2.35,2.03,5.03,1.98,7.73l-4.66,241.33
	c-0.12,14.19-10.51,24.2-19.87,24.2l-114.31-1.53c-11.02,0-20.9-12.59-20.64-23.61l5.48-239.64c0.06-2.66,0.79-5.27,2.12-7.57
	c12.04-20.95,12.28-21.23,29.11-39.08c1.2-1.28,1.95-2.92,2.11-4.67l13.29-140.64C242.81,69.97,244.06,68.68,245.67,68.47z"/>
<path class="st3" d="M257.55,84.6c6.31-0.7,16.02-1.27,26.63-0.03c4.24,0.49,7.55,3.92,7.93,8.17l11.35,125.85
	c0.15,1.68,0.77,3.28,1.78,4.63c3.92,5.19,14.51,19.77,22.71,36.04c0.65,1.29,0.96,2.73,0.94,4.17l-3.86,237.46
	c-0.08,4.94-4.11,8.9-9.05,8.9H220.4c-5.06,0-9.14-4.15-9.05-9.21l4.29-236.22c0.02-1.02,0.21-2.03,0.56-2.98
	c2.16-5.83,10.64-27.38,21.19-37.57c1.58-1.53,2.59-3.55,2.76-5.74l9.39-125.17C249.88,88.58,253.24,85.07,257.55,84.6z"/>
<path class="st4" d="M252.43,34.03c0,0,6.65-6.47,17.92-5.54c0,0,16.63-1.48,21.43,5.54H252.43z"/>
<path class="st5" d="M275.94,83.93l4.15,129.03c0,0-0.35,4.93-8.8,17.95l-8.1-12.32V84.12c1.96-0.14,4.01-0.23,6.16-0.27
	C271.65,83.81,273.85,83.85,275.94,83.93z"/>
<path class="st5" d="M257.21,268.66c0,0,0.35-11.27,14.08-38.02l16.55,42.95V509.8h-32.39L257.21,268.66z"/>
</svg>
