<?xml version="1.0" encoding="utf-8"?>
<!-- Generator: Adobe Illustrator 27.9.0, SVG Export Plug-In . SVG Version: 6.00 Build 0)  -->
<svg version="1.1" id="Layer_1" xmlns="http://www.w3.org/2000/svg" xmlns:xlink="http://www.w3.org/1999/xlink" x="0px" y="0px"
	 viewBox="0 0 540.67 540.67" style="enable-background:new 0 0 540.67 540.67;" xml:space="preserve">
<style type="text/css">
	.st0{fill:#3C1E14;}
	.st1{fill:#33201A;}
	.st2{fill:#423427;}
	.st3{fill:#C9944E;}
	.st4{fill:#B27B42;}
	.st5{fill:#BD8435;}
</style>
<path class="st0" d="M257.36,36.12c-0.52-0.23-6.08-2.8-3.25-8.98c1.26-2.75,3.67-4.81,6.5-5.85c12.67-4.64,27.8-10.33,53.04,1.17
	c1.89,0.86,1.77,1.13,1.84,1.11c0,0,6.21,8.08-0.31,12.52c-0.04,0.03-0.08,0.04-0.13,0.04h-57.61
	C257.41,36.13,257.38,36.13,257.36,36.12z"/>
<path class="st1" d="M254.82,67.91c0,0,29.14-8.68,59.66-0.28c0.71,0.19,1.45,0.24,2.17,0.12c1.99-0.32,5.57-1.16,5.56-2.97
	c0-0.58,0-0.56-0.11-1.73c-0.18-1.95-0.1-7.69-5.74-23.48c-0.73-2.05-2.66-3.43-4.84-3.43c-10.35,0-40.19,0-50.55,0
	c-2.17,0-4.1,1.37-4.83,3.42c-2.55,7.17-7.45,22.84-6.27,25.01c0.75,1.38,0,0,0.75,1.38C251.2,66.98,252.06,68.45,254.82,67.91z"/>
<path class="st2" d="M259.59,65.09c7.29-0.96,28.14-3.1,50.56,0c1.57,0.22,2.81,1.47,2.99,3.05l15.66,138.61
	c0.4,3.51,2.07,6.76,4.69,9.12c15.35,13.79,15.86,14.59,27.97,35.82c1.34,2.35,2.02,5.03,1.97,7.73l-4.64,241.33
	c-0.12,14.19-10.46,24.2-19.77,24.2l-113.75-1.53c-10.97,0-20.79-12.59-20.54-23.61l5.46-239.64c0.06-2.66,0.79-5.27,2.11-7.57
	c11.98-20.95,12.22-21.23,28.97-39.08c1.2-1.28,1.94-2.92,2.1-4.67l13.23-140.64C256.74,66.59,257.98,65.3,259.59,65.09z"/>
<path class="st3" d="M271.4,81.22c6.28-0.7,15.94-1.27,26.5-0.03c4.22,0.49,7.51,3.92,7.89,8.17l11.29,125.85
	c0.15,1.68,0.76,3.28,1.78,4.63c3.9,5.19,14.44,19.77,22.6,36.04c0.65,1.29,0.96,2.73,0.94,4.17l-3.84,237.46
	c-0.08,4.94-4.09,8.9-9,8.9h-95.12c-5.04,0-9.09-4.15-9-9.21L229.71,261c0.02-1.02,0.21-2.03,0.56-2.98
	c2.15-5.83,10.59-27.38,21.09-37.57c1.58-1.53,2.58-3.55,2.75-5.74l9.35-125.17C263.78,85.2,267.11,81.7,271.4,81.22z"/>
<path class="st4" d="M266.31,30.66c0,0,6.62-6.47,17.83-5.54c0,0,16.55-1.48,21.33,5.54H266.31z"/>
<path class="st5" d="M289.71,80.55l4.13,129.03c0,0-0.35,4.93-8.76,17.95l-8.06-12.32V80.74c1.95-0.14,3.99-0.23,6.13-0.27
	C285.44,80.44,287.63,80.47,289.71,80.55z"/>
<path class="st5" d="M271.06,265.28c0,0,0.35-11.27,14.01-38.02l16.46,42.95v236.22h-32.23L271.06,265.28z"/>
</svg>
