<?xml version="1.0" encoding="utf-8"?>
<!-- Generator: Adobe Illustrator 27.9.0, SVG Export Plug-In . SVG Version: 6.00 Build 0)  -->
<svg version="1.1" id="Layer_1" xmlns="http://www.w3.org/2000/svg" xmlns:xlink="http://www.w3.org/1999/xlink" x="0px" y="0px"
	 viewBox="0 0 100 100" style="enable-background:new 0 0 100 100;" xml:space="preserve">
<style type="text/css">
	.st0{fill:none;stroke:#FFFFFF;stroke-width:3;stroke-miterlimit:10;}
	.st1{fill:none;stroke:#FFFFFF;stroke-width:3;stroke-linecap:round;stroke-linejoin:round;stroke-miterlimit:10;}
</style>
<path class="st0" d="M86.82,95.38H13.18c-2.75,0-5-2.25-5-5V16.74c0-2.75,2.25-5,5-5h73.64c2.75,0,5,2.25,5,5v73.64
	C91.82,93.13,89.57,95.38,86.82,95.38z"/>
<polyline class="st1" points="14.38,49.5 27.15,49.5 27.15,38.01 "/>
<polyline class="st1" points="33.26,49.5 46.03,49.5 46.03,38.01 "/>
<polyline class="st1" points="52.78,49.5 65.55,49.5 65.55,38.01 "/>
<polyline class="st1" points="52.78,68.45 65.55,68.45 65.55,56.96 "/>
<polyline class="st1" points="52.78,88.01 65.55,88.01 65.55,76.52 "/>
<polyline class="st1" points="33.26,88.01 46.03,88.01 46.03,76.52 "/>
<polyline class="st1" points="14.38,88.01 27.15,88.01 27.15,76.52 "/>
<polyline class="st1" points="14.38,68.76 27.15,68.76 27.15,57.26 "/>
<polyline class="st1" points="33.58,68.76 46.35,68.76 46.35,57.26 "/>
<polyline class="st1" points="71.94,49.5 84.71,49.5 84.71,38.01 "/>
<polyline class="st1" points="71.94,68.45 84.71,68.45 84.71,56.96 "/>
<line class="st1" x1="8.18" y1="30.34" x2="91.82" y2="30.34"/>
<line class="st1" x1="59.81" y1="4.62" x2="59.81" y2="17.89"/>
<line class="st1" x1="78.96" y1="4.62" x2="78.96" y2="17.89"/>
<line class="st1" x1="40.65" y1="4.62" x2="40.65" y2="17.89"/>
<line class="st1" x1="20.77" y1="4.62" x2="20.77" y2="17.89"/>
</svg>
