<?xml version="1.0" encoding="utf-8"?>
<!-- Generator: Adobe Illustrator 27.9.0, SVG Export Plug-In . SVG Version: 6.00 Build 0)  -->
<svg version="1.1" id="Layer_1" xmlns="http://www.w3.org/2000/svg" xmlns:xlink="http://www.w3.org/1999/xlink" x="0px" y="0px"
	 viewBox="0 0 268.3 268.3" style="enable-background:new 0 0 268.3 268.3;" xml:space="preserve">
<style type="text/css">
	.st0{fill:#FFFFFF;}
</style>
<g>
	<path class="st0" d="M125.9,47.7c-42.3-1.5-77,33-75.8,75.3c1.1,38.3,32.2,69.6,70.6,71c42.3,1.5,77-33,75.8-75.3
		C195.3,80.3,164.2,49,125.9,47.7z M79.9,122.3c-1.2-25.8,20-46.9,45.8-45.5c22.1,1.2,39.9,19.2,41,41.2c1.2,25.8-20,46.9-45.8,45.5
		C98.8,162.4,80.9,144.4,79.9,122.3z M169.9,166.7c-24.1,24.1-56.9,25.9-83.5,9.8l11.8-11.8c20.2,10.1,43.1,8.8,60.8-8.9
		c17.5-17.5,19-40.6,8.8-60.6l11.8-11.8C194.8,109.8,193.5,143.1,169.9,166.7z"/>
	<rect x="108.3" y="51.5" class="st0" width="30" height="112.1"/>
	<rect x="108.3" y="191.1" class="st0" width="30" height="51.2"/>
	<polygon class="st0" points="108.3,82.8 138.3,82.8 138.3,25.7 108.3,25.7 108.3,49.7 	"/>
	<rect x="108.3" y="212.7" class="st0" width="88.2" height="30"/>
</g>
</svg>
